<svg xmlns="http://www.w3.org/2000/svg" viewBox="0 0 6 8" style="background: transparent">
    <g id="Body_Body2" style="fill: transparent">
        <path
            d="M6,6.181025 L6,8 5.2341875,8 A0.5,0.5 90 0,1 4.8500768,7.8200922 L0.1158894,2.1390672 A0.5,0.5 140.1944289 0,1 -0,1.818975 L0,0 0.7658125,-0 A0.5,0.5 270 0,1 1.1499232,0.1799078 L2.6393443,1.9672131 4.8609328,0.1158894 A0.5,0.5 230.1944289 0,1 5.181025,-0 L6,0 6,1.7658125 A0.5,0.5 0 0,1 5.8200922,2.1499232 L4.0327869,3.6393443 5.8841106,5.8609328 A0.5,0.5 320.1944289 0,1 6,6.181025z"
            transform="matrix(1,0,0,-1,0,8)"
            fill="rgb(0,0,0)"
            stroke-linecap="round"
            stroke-linejoin="round"
            id="path1"
            style="fill: #ffffff"
        />
    </g>
    <g id="Body_Body1">
        <path
            d="M2,8 L0,8 0,5.381025 A0.5,0.5 180 0,1 0.8841106,5.0609328 L2.4797537,6.9757044 A0.6245003,0.6245003 320.1944289 0,1 2,8z"
            transform="matrix(1,0,0,-1,0,8)"
            fill="rgb(0,0,0)"
            stroke-linecap="round"
            stroke-linejoin="round"
            id="path2"
        />
    </g>
    <path
        style="fill: #e94646; stroke-width: 0.5006; fill-opacity: 1"
        d="M 12.12963,116.20825 C 6.5587138,113.86113 3.0140292,110.02801 1.253804,104.44745 0.27718409,101.35121 0.25029984,99.912852 0.25029984,50.758134 V 0.25029984 H 39.191899 c 42.809502,0 41.832717,-0.0630644 47.733105,3.08180916 1.598194,0.8518292 4.016642,2.7233204 5.374323,4.1588696 7.758023,8.2029684 8.696543,20.4856034 2.250851,29.4575334 -3.248952,4.522307 -61.575192,74.177088 -63.738512,76.118268 -3.305958,2.96648 -6.050061,3.98388 -11.288279,4.18521 -3.886692,0.14939 -4.902041,0.006 -7.393757,-1.04374 z"
        id="path3"
        transform="scale(0.02645833)"
    />
</svg>